<?xml version="1.0" standalone="no"?>
<!DOCTYPE svg PUBLIC "-//W3C//DTD SVG 20010904//EN"
 "http://www.w3.org/TR/2001/REC-SVG-20010904/DTD/svg10.dtd">
<svg version="1.0" xmlns="http://www.w3.org/2000/svg"
 width="123.000000pt" height="121.000000pt" viewBox="0 0 123.000000 121.000000"
 preserveAspectRatio="xMidYMid meet">
<metadata>
Created by potrace 1.13, written by Peter Selinger 2001-2015
</metadata>
<g transform="translate(0.000000,121.000000) scale(0.100000,-0.100000)"
fill="#000000" stroke="none">
<path d="M515 1086 c-27 -7 -72 -22 -99 -34 l-49 -22 -24 26 c-13 14 -27 23
-30 20 -7 -6 11 -28 81 -103 l40 -42 -50 -53 c-28 -29 -55 -62 -62 -73 -10
-19 -13 -18 -54 23 -24 23 -46 42 -50 42 -12 0 -57 -118 -68 -178 -8 -47 -8
-83 0 -135 12 -80 61 -197 83 -197 7 0 51 -38 96 -85 70 -71 82 -89 77 -109
-8 -31 19 -43 36 -17 10 17 15 17 62 5 67 -18 190 -18 252 1 39 11 69 33 149
110 55 52 107 98 116 100 35 11 79 154 79 258 0 47 -8 92 -25 144 l-26 76 37
38 c25 26 34 43 30 56 -5 16 -19 6 -92 -66 l-86 -86 -16 25 c-10 14 -37 47
-61 73 l-44 48 36 37 c20 21 37 41 37 45 0 5 -28 21 -63 37 -104 49 -210 61
-312 36z m242 -164 c23 -12 59 -37 79 -54 45 -40 94 -139 94 -190 l0 -38 -58
0 -59 0 -18 -42 -17 -43 -15 49 -15 50 -28 -34 -28 -34 -17 57 c-17 60 -25 67
-45 42 -7 -8 -16 -15 -20 -15 -4 0 -17 38 -30 85 -13 47 -26 85 -30 85 -3 0
-23 -53 -44 -118 -47 -147 -49 -152 -66 -113 -12 29 -16 31 -66 31 l-54 0 0
33 c0 108 87 218 209 264 53 20 175 12 228 -15z m-191 -225 c3 -17 11 -43 15
-56 9 -22 10 -22 34 -7 l24 16 17 -58 c10 -31 19 -59 21 -61 1 -2 12 8 24 22
11 15 24 27 29 27 5 0 14 -26 20 -57 18 -88 26 -95 43 -38 8 28 22 67 30 88
15 35 18 37 61 37 28 0 46 -5 46 -11 0 -72 -95 -191 -182 -230 -151 -66 -333
4 -404 156 -33 70 -32 75 21 75 l44 0 21 -70 c11 -38 23 -70 25 -70 4 0 18 43
61 187 15 51 30 90 35 88 4 -3 11 -20 15 -38z"/>
</g>
</svg>
